<mxfile host="app.diagrams.net" modified="2023-06-24T03:57:10.050Z" agent="Mozilla/5.0 (Windows NT 10.0; Win64; x64) AppleWebKit/537.36 (KHTML, like Gecko) Chrome/114.0.0.0 Safari/537.36" etag="HqvE_m6fEAu-z7TUFHqd" version="21.5.0" type="device">
  <diagram name="PÃ¡gina-1" id="U2NhIT_4wlTlXD6VRpkP">
    <mxGraphModel dx="1707" dy="427" grid="1" gridSize="10" guides="1" tooltips="1" connect="1" arrows="1" fold="1" page="1" pageScale="1" pageWidth="827" pageHeight="1169" math="0" shadow="0">
      <root>
        <mxCell id="0" />
        <mxCell id="1" parent="0" />
        <mxCell id="7m2hUwW0qzy47AlpeMbO-1" value="" style="rounded=0;whiteSpace=wrap;html=1;" parent="1" vertex="1">
          <mxGeometry x="9" y="10" width="810" height="150" as="geometry" />
        </mxCell>
        <mxCell id="7m2hUwW0qzy47AlpeMbO-2" value="" style="ellipse;whiteSpace=wrap;html=1;aspect=fixed;" parent="1" vertex="1">
          <mxGeometry x="30" y="35" width="100" height="100" as="geometry" />
        </mxCell>
        <mxCell id="7m2hUwW0qzy47AlpeMbO-5" value="GENTIZI" style="text;strokeColor=none;fillColor=none;html=1;fontSize=43;fontStyle=1;verticalAlign=middle;align=center;" parent="1" vertex="1">
          <mxGeometry x="244" y="20" width="340" height="70" as="geometry" />
        </mxCell>
        <mxCell id="7m2hUwW0qzy47AlpeMbO-6" value="&lt;font color=&quot;#ff8000&quot; face=&quot;Verdana&quot; style=&quot;font-weight: normal;&quot;&gt;Furnitures&lt;/font&gt;" style="text;strokeColor=none;fillColor=none;html=1;fontSize=24;fontStyle=1;verticalAlign=middle;align=center;" parent="1" vertex="1">
          <mxGeometry x="360" y="70" width="100" height="40" as="geometry" />
        </mxCell>
        <mxCell id="7m2hUwW0qzy47AlpeMbO-10" value="Button" style="labelPosition=center;verticalLabelPosition=middle;align=center;html=1;shape=mxgraph.basic.button;dx=10;whiteSpace=wrap;" parent="1" vertex="1">
          <mxGeometry x="190" y="105" width="60" height="30" as="geometry" />
        </mxCell>
        <mxCell id="7m2hUwW0qzy47AlpeMbO-11" value="Button" style="labelPosition=center;verticalLabelPosition=middle;align=center;html=1;shape=mxgraph.basic.button;dx=10;whiteSpace=wrap;" parent="1" vertex="1">
          <mxGeometry x="380" y="105" width="60" height="30" as="geometry" />
        </mxCell>
        <mxCell id="7m2hUwW0qzy47AlpeMbO-12" value="Button" style="labelPosition=center;verticalLabelPosition=middle;align=center;html=1;shape=mxgraph.basic.button;dx=10;whiteSpace=wrap;" parent="1" vertex="1">
          <mxGeometry x="560" y="105" width="60" height="30" as="geometry" />
        </mxCell>
        <mxCell id="7m2hUwW0qzy47AlpeMbO-17" value="Button" style="labelPosition=center;verticalLabelPosition=middle;align=center;html=1;shape=mxgraph.basic.button;dx=10;whiteSpace=wrap;" parent="1" vertex="1">
          <mxGeometry x="720" y="105" width="60" height="30" as="geometry" />
        </mxCell>
        <mxCell id="7m2hUwW0qzy47AlpeMbO-18" value="" style="verticalLabelPosition=bottom;verticalAlign=top;html=1;shape=mxgraph.basic.rect;fillColor2=none;strokeWidth=1;size=20;indent=5;labelBackgroundColor=#B3B3B3;fillColor=#f5f5f5;strokeColor=#666666;gradientColor=#b3b3b3;" parent="1" vertex="1">
          <mxGeometry x="-10" y="960" width="820" height="190" as="geometry" />
        </mxCell>
        <mxCell id="7m2hUwW0qzy47AlpeMbO-20" value="" style="verticalLabelPosition=bottom;verticalAlign=top;html=1;shape=mxgraph.flowchart.on-page_reference;" parent="1" vertex="1">
          <mxGeometry x="460" y="1000" width="90" height="80" as="geometry" />
        </mxCell>
        <mxCell id="7m2hUwW0qzy47AlpeMbO-22" value="" style="line;strokeWidth=1;fillColor=none;align=left;verticalAlign=middle;spacingTop=-1;spacingLeft=3;spacingRight=3;rotatable=0;labelPosition=right;points=[];portConstraint=eastwest;strokeColor=inherit;" parent="1" vertex="1">
          <mxGeometry x="44" y="1100" width="740" height="8" as="geometry" />
        </mxCell>
        <UserObject label="Copyright Gentizi furnitures" placeholders="1" name="Variable" id="7m2hUwW0qzy47AlpeMbO-24">
          <mxCell style="text;html=1;strokeColor=none;fillColor=none;align=center;verticalAlign=middle;whiteSpace=wrap;overflow=hidden;" parent="1" vertex="1">
            <mxGeometry x="130" y="1120" width="530" height="20" as="geometry" />
          </mxCell>
        </UserObject>
        <mxCell id="7m2hUwW0qzy47AlpeMbO-25" value="" style="rounded=0;whiteSpace=wrap;html=1;" parent="1" vertex="1">
          <mxGeometry x="5" y="200" width="810" height="500" as="geometry" />
        </mxCell>
        <mxCell id="R5AY2FHfzKNgrLlBBQ8p-3" value="OUR FURNITURE" style="text;html=1;strokeColor=none;fillColor=none;align=center;verticalAlign=middle;whiteSpace=wrap;rounded=0;fontSize=50;" vertex="1" parent="1">
          <mxGeometry x="274" y="350" width="280" height="150" as="geometry" />
        </mxCell>
        <mxCell id="R5AY2FHfzKNgrLlBBQ8p-4" value="" style="whiteSpace=wrap;html=1;aspect=fixed;" vertex="1" parent="1">
          <mxGeometry x="200" y="760" width="80" height="80" as="geometry" />
        </mxCell>
        <mxCell id="R5AY2FHfzKNgrLlBBQ8p-5" value="" style="whiteSpace=wrap;html=1;aspect=fixed;" vertex="1" parent="1">
          <mxGeometry x="40" y="760" width="80" height="80" as="geometry" />
        </mxCell>
        <mxCell id="R5AY2FHfzKNgrLlBBQ8p-6" value="" style="whiteSpace=wrap;html=1;aspect=fixed;" vertex="1" parent="1">
          <mxGeometry x="380" y="760" width="80" height="80" as="geometry" />
        </mxCell>
        <mxCell id="R5AY2FHfzKNgrLlBBQ8p-7" value="" style="whiteSpace=wrap;html=1;aspect=fixed;" vertex="1" parent="1">
          <mxGeometry x="550" y="760" width="80" height="80" as="geometry" />
        </mxCell>
        <mxCell id="R5AY2FHfzKNgrLlBBQ8p-8" value="" style="whiteSpace=wrap;html=1;aspect=fixed;" vertex="1" parent="1">
          <mxGeometry x="720" y="760" width="80" height="80" as="geometry" />
        </mxCell>
        <mxCell id="R5AY2FHfzKNgrLlBBQ8p-9" value="Bathroom" style="text;html=1;strokeColor=none;fillColor=none;align=center;verticalAlign=middle;whiteSpace=wrap;rounded=0;" vertex="1" parent="1">
          <mxGeometry x="50" y="850" width="60" height="30" as="geometry" />
        </mxCell>
        <mxCell id="R5AY2FHfzKNgrLlBBQ8p-10" value="Dining sets" style="text;html=1;strokeColor=none;fillColor=none;align=center;verticalAlign=middle;whiteSpace=wrap;rounded=0;" vertex="1" parent="1">
          <mxGeometry x="195" y="850" width="90" height="30" as="geometry" />
        </mxCell>
        <mxCell id="R5AY2FHfzKNgrLlBBQ8p-11" value="Bathroom furniture" style="text;html=1;strokeColor=none;fillColor=none;align=center;verticalAlign=middle;whiteSpace=wrap;rounded=0;" vertex="1" parent="1">
          <mxGeometry x="370" y="840" width="100" height="50" as="geometry" />
        </mxCell>
        <mxCell id="R5AY2FHfzKNgrLlBBQ8p-12" value="Wardrobes" style="text;html=1;strokeColor=none;fillColor=none;align=center;verticalAlign=middle;whiteSpace=wrap;rounded=0;" vertex="1" parent="1">
          <mxGeometry x="560" y="850" width="60" height="30" as="geometry" />
        </mxCell>
        <mxCell id="R5AY2FHfzKNgrLlBBQ8p-13" value="Tv stands" style="text;html=1;strokeColor=none;fillColor=none;align=center;verticalAlign=middle;whiteSpace=wrap;rounded=0;" vertex="1" parent="1">
          <mxGeometry x="730" y="850" width="60" height="30" as="geometry" />
        </mxCell>
        <mxCell id="R5AY2FHfzKNgrLlBBQ8p-15" value="instagram logo&amp;nbsp;" style="text;html=1;strokeColor=none;fillColor=none;align=center;verticalAlign=middle;whiteSpace=wrap;rounded=0;" vertex="1" parent="1">
          <mxGeometry x="482" y="1020" width="46" height="30" as="geometry" />
        </mxCell>
        <mxCell id="R5AY2FHfzKNgrLlBBQ8p-17" value="Big image" style="text;html=1;strokeColor=none;fillColor=none;align=center;verticalAlign=middle;whiteSpace=wrap;rounded=0;" vertex="1" parent="1">
          <mxGeometry x="380" y="530" width="60" height="30" as="geometry" />
        </mxCell>
        <mxCell id="R5AY2FHfzKNgrLlBBQ8p-18" value="Image" style="text;html=1;strokeColor=none;fillColor=none;align=center;verticalAlign=middle;whiteSpace=wrap;rounded=0;" vertex="1" parent="1">
          <mxGeometry x="724" y="785" width="60" height="30" as="geometry" />
        </mxCell>
        <mxCell id="R5AY2FHfzKNgrLlBBQ8p-19" value="Image" style="text;html=1;strokeColor=none;fillColor=none;align=center;verticalAlign=middle;whiteSpace=wrap;rounded=0;" vertex="1" parent="1">
          <mxGeometry x="560" y="785" width="60" height="30" as="geometry" />
        </mxCell>
        <mxCell id="R5AY2FHfzKNgrLlBBQ8p-20" value="Image" style="text;html=1;strokeColor=none;fillColor=none;align=center;verticalAlign=middle;whiteSpace=wrap;rounded=0;" vertex="1" parent="1">
          <mxGeometry x="390" y="785" width="60" height="30" as="geometry" />
        </mxCell>
        <mxCell id="R5AY2FHfzKNgrLlBBQ8p-21" value="Image" style="text;html=1;strokeColor=none;fillColor=none;align=center;verticalAlign=middle;whiteSpace=wrap;rounded=0;" vertex="1" parent="1">
          <mxGeometry x="214" y="785" width="60" height="30" as="geometry" />
        </mxCell>
        <mxCell id="R5AY2FHfzKNgrLlBBQ8p-22" value="Image" style="text;html=1;strokeColor=none;fillColor=none;align=center;verticalAlign=middle;whiteSpace=wrap;rounded=0;" vertex="1" parent="1">
          <mxGeometry x="50" y="785" width="60" height="30" as="geometry" />
        </mxCell>
        <mxCell id="R5AY2FHfzKNgrLlBBQ8p-24" value="" style="verticalLabelPosition=bottom;verticalAlign=top;html=1;shape=mxgraph.flowchart.on-page_reference;" vertex="1" parent="1">
          <mxGeometry x="270" y="1000" width="90" height="80" as="geometry" />
        </mxCell>
        <mxCell id="R5AY2FHfzKNgrLlBBQ8p-25" value="Facebook logo" style="text;html=1;strokeColor=none;fillColor=none;align=center;verticalAlign=middle;whiteSpace=wrap;rounded=0;" vertex="1" parent="1">
          <mxGeometry x="290" y="1025" width="60" height="30" as="geometry" />
        </mxCell>
      </root>
    </mxGraphModel>
  </diagram>
</mxfile>
